<svg xmlns="http://www.w3.org/2000/svg" viewBox="0 0 2000 2000">
  <g fill="#1B98E0">
    <path d="M 962 311 L 952 315 L 944 321 L 936 323 L 931 327 L 918 332 L 914 336 L 905 339 L 880 353 L 869 357 L 851 368 L 840 372 L 836 376 L 834 383 L 835 972 L 825 1029 L 816 1060 L 805 1083 L 802 1094 L 784 1126 L 760 1157 L 723 1194 L 692 1218 L 667 1231 L 649 1243 L 642 1245 L 624 1255 L 605 1268 L 584 1279 L 580 1283 L 570 1287 L 522 1316 L 512 1320 L 508 1324 L 497 1329 L 454 1356 L 413 1377 L 409 1381 L 401 1384 L 394 1390 L 371 1402 L 355 1413 L 296 1443 L 297 1453 L 321 1464 L 338 1478 L 357 1488 L 363 1494 L 397 1515 L 412 1527 L 422 1526 L 426 1522 L 449 1510 L 478 1491 L 522 1469 L 551 1450 L 565 1444 L 581 1433 L 591 1429 L 597 1424 L 620 1412 L 637 1400 L 677 1379 L 681 1375 L 703 1364 L 709 1359 L 734 1347 L 738 1343 L 747 1339 L 788 1313 L 826 1282 L 872 1233 L 889 1209 L 922 1152 L 924 1144 L 930 1134 L 933 1121 L 937 1115 L 940 1102 L 947 1085 L 949 1070 L 961 1027 L 964 997 L 966 376 L 968 316 Z"/>
    <path d="M 1563 1611 L 1562 1606 L 1558 1602 L 1544 1595 L 1528 1582 L 1519 1578 L 1502 1566 L 1488 1560 L 1444 1533 L 1419 1521 L 1402 1508 L 1391 1504 L 1387 1500 L 1365 1489 L 1332 1467 L 1324 1464 L 1305 1451 L 1293 1446 L 1277 1435 L 1252 1422 L 1247 1417 L 1224 1406 L 1205 1394 L 1169 1377 L 1156 1374 L 1148 1369 L 1134 1366 L 1120 1360 L 1099 1356 L 1089 1352 L 1047 1345 L 1026 1343 L 952 1344 L 899 1352 L 885 1357 L 871 1359 L 857 1365 L 838 1369 L 801 1386 L 698 1443 L 669 1462 L 641 1476 L 637 1480 L 599 1499 L 563 1522 L 485 1565 L 481 1569 L 471 1573 L 439 1593 L 427 1598 L 396 1617 L 340 1646 L 335 1651 L 327 1654 L 319 1660 L 296 1670 L 293 1675 L 293 1680 L 296 1683 L 316 1692 L 337 1707 L 343 1709 L 412 1755 L 421 1759 L 429 1758 L 439 1751 L 465 1738 L 481 1726 L 545 1690 L 563 1677 L 585 1666 L 592 1660 L 611 1650 L 618 1644 L 626 1641 L 644 1628 L 667 1616 L 700 1594 L 709 1591 L 726 1579 L 734 1576 L 767 1554 L 791 1542 L 796 1537 L 816 1526 L 820 1522 L 851 1505 L 893 1488 L 906 1486 L 925 1480 L 972 1472 L 1011 1471 L 1051 1474 L 1057 1477 L 1082 1482 L 1091 1486 L 1106 1488 L 1116 1493 L 1128 1496 L 1176 1521 L 1209 1543 L 1246 1562 L 1264 1575 L 1273 1578 L 1277 1583 L 1289 1590 L 1300 1594 L 1319 1608 L 1341 1619 L 1344 1623 L 1355 1627 L 1359 1631 L 1371 1636 L 1375 1640 L 1396 1651 L 1401 1656 L 1411 1660 L 1431 1673 L 1440 1676 L 1445 1681 L 1468 1693 L 1473 1698 L 1495 1708 L 1500 1713 L 1523 1725 L 1547 1742 L 1551 1741 L 1554 1737 L 1553 1717 L 1560 1658 L 1561 1622 Z"/>
    <path d="M 1036 521 L 1029 529 L 1029 893 L 1033 1027 L 1038 1039 L 1042 1065 L 1046 1074 L 1049 1090 L 1055 1105 L 1058 1119 L 1071 1146 L 1072 1152 L 1079 1163 L 1083 1175 L 1104 1207 L 1107 1215 L 1111 1218 L 1115 1226 L 1131 1247 L 1155 1274 L 1182 1298 L 1204 1315 L 1209 1317 L 1213 1322 L 1237 1334 L 1254 1347 L 1275 1358 L 1279 1362 L 1295 1371 L 1307 1375 L 1311 1379 L 1331 1390 L 1336 1395 L 1346 1399 L 1353 1405 L 1401 1431 L 1409 1438 L 1429 1447 L 1449 1461 L 1468 1471 L 1475 1477 L 1514 1496 L 1546 1518 L 1568 1528 L 1589 1543 L 1625 1562 L 1629 1566 L 1639 1570 L 1644 1575 L 1654 1579 L 1670 1590 L 1682 1595 L 1719 1619 L 1723 1618 L 1726 1615 L 1724 1583 L 1725 1483 L 1723 1476 L 1719 1472 L 1660 1439 L 1655 1434 L 1631 1422 L 1627 1418 L 1619 1415 L 1573 1385 L 1550 1374 L 1546 1370 L 1522 1358 L 1517 1353 L 1481 1334 L 1476 1329 L 1439 1308 L 1435 1304 L 1408 1291 L 1377 1270 L 1359 1261 L 1326 1239 L 1302 1226 L 1270 1201 L 1231 1161 L 1211 1135 L 1195 1107 L 1190 1094 L 1186 1089 L 1182 1075 L 1178 1069 L 1162 1018 L 1158 994 L 1156 840 L 1157 480 L 1147 477 L 1134 485 L 1123 487 L 1096 500 L 1083 503 L 1076 507 L 1063 510 L 1052 516 Z"/>
  </g>
</svg>
