<svg width="1024" height="1024" viewBox="0 0 1024 1024" xmlns="http://www.w3.org/2000/svg">
  <path fill="#0B0B0B" d="M 607 191 L 605 191 L 584 202 L 582 202 L 530 228 L 530 565 L 529 566 L 529 576 L 528 577 L 528 583 L 527 584 L 526 593 L 525 594 L 524 601 L 522 605 L 522 608 L 519 614 L 518 619 L 515 624 L 515 626 L 509 638 L 504 645 L 503 648 L 501 650 L 499 654 L 496 657 L 496 658 L 493 661 L 493 662 L 475 681 L 474 681 L 468 687 L 467 687 L 460 693 L 459 693 L 454 697 L 451 698 L 449 700 L 439 705 L 437 707 L 434 708 L 432 710 L 429 711 L 427 713 L 424 714 L 422 716 L 419 717 L 417 719 L 411 722 L 409 724 L 406 725 L 401 729 L 398 730 L 396 732 L 393 733 L 391 735 L 388 736 L 386 738 L 378 742 L 373 746 L 365 750 L 355 757 L 350 759 L 345 763 L 337 767 L 332 771 L 324 775 L 319 779 L 316 780 L 314 782 L 311 783 L 309 785 L 301 789 L 296 793 L 293 794 L 291 796 L 288 797 L 286 799 L 278 803 L 273 807 L 268 809 L 263 813 L 260 814 L 258 816 L 255 817 L 253 819 L 250 820 L 243 825 L 243 826 L 251 830 L 262 838 L 265 839 L 270 843 L 273 844 L 278 848 L 281 849 L 286 853 L 289 854 L 291 856 L 292 856 L 297 860 L 300 861 L 305 865 L 308 866 L 313 870 L 316 870 L 318 869 L 320 867 L 323 866 L 325 864 L 328 863 L 330 861 L 333 860 L 340 855 L 345 853 L 347 851 L 350 850 L 352 848 L 355 847 L 357 845 L 360 844 L 362 842 L 365 841 L 367 839 L 370 838 L 377 833 L 382 831 L 384 829 L 387 828 L 389 826 L 392 825 L 394 823 L 397 822 L 404 817 L 409 815 L 411 813 L 414 812 L 416 810 L 419 809 L 421 807 L 424 806 L 426 804 L 429 803 L 431 801 L 434 800 L 436 798 L 439 797 L 446 792 L 451 790 L 453 788 L 456 787 L 458 785 L 461 784 L 463 782 L 466 781 L 468 779 L 471 778 L 473 776 L 476 775 L 478 773 L 481 772 L 483 770 L 491 766 L 493 764 L 499 761 L 501 759 L 505 757 L 508 754 L 512 752 L 516 748 L 517 748 L 521 744 L 522 744 L 530 736 L 531 736 L 543 724 L 543 723 L 551 715 L 551 714 L 559 705 L 559 704 L 561 702 L 563 698 L 566 695 L 569 689 L 573 684 L 575 679 L 577 677 L 586 659 L 586 657 L 591 647 L 591 645 L 592 644 L 592 642 L 593 641 L 593 639 L 594 638 L 594 636 L 595 635 L 595 633 L 597 629 L 597 626 L 599 622 L 600 615 L 601 614 L 601 610 L 602 609 L 602 605 L 603 604 L 603 600 L 604 599 L 604 593 L 605 592 L 605 584 L 606 583 L 606 572 L 607 571 Z M 921 908 L 919 906 L 916 905 L 914 903 L 911 902 L 904 897 L 899 895 L 897 893 L 894 892 L 892 890 L 889 889 L 887 887 L 884 886 L 882 884 L 879 883 L 877 881 L 874 880 L 872 878 L 869 877 L 867 875 L 859 871 L 854 867 L 851 866 L 849 864 L 846 863 L 844 861 L 841 860 L 839 858 L 836 857 L 829 852 L 819 847 L 814 843 L 809 841 L 807 839 L 804 838 L 802 836 L 799 835 L 797 833 L 789 829 L 784 825 L 781 824 L 779 822 L 776 821 L 774 819 L 771 818 L 769 816 L 766 815 L 764 813 L 761 812 L 759 810 L 756 809 L 754 807 L 751 806 L 744 801 L 739 799 L 737 797 L 715 786 L 713 786 L 705 782 L 703 782 L 702 781 L 700 781 L 699 780 L 697 780 L 696 779 L 694 779 L 693 778 L 691 778 L 687 776 L 684 776 L 680 774 L 676 774 L 675 773 L 672 773 L 671 772 L 662 771 L 661 770 L 655 770 L 654 769 L 646 769 L 645 768 L 632 768 L 631 767 L 617 767 L 616 768 L 600 768 L 599 769 L 590 769 L 589 770 L 584 770 L 583 771 L 579 771 L 578 772 L 573 772 L 572 773 L 569 773 L 568 774 L 565 774 L 564 775 L 561 775 L 560 776 L 553 777 L 552 778 L 550 778 L 549 779 L 547 779 L 546 780 L 538 782 L 530 786 L 528 786 L 521 790 L 519 790 L 509 795 L 507 797 L 502 799 L 495 804 L 490 806 L 483 811 L 478 813 L 476 815 L 473 816 L 466 821 L 461 823 L 459 825 L 456 826 L 454 828 L 451 829 L 449 831 L 446 832 L 439 837 L 434 839 L 427 844 L 422 846 L 417 850 L 412 852 L 410 854 L 407 855 L 400 860 L 395 862 L 393 864 L 390 865 L 383 870 L 378 872 L 376 874 L 373 875 L 371 877 L 368 878 L 366 880 L 363 881 L 356 886 L 351 888 L 341 895 L 338 896 L 336 898 L 333 899 L 331 901 L 328 902 L 326 904 L 323 905 L 321 907 L 318 908 L 316 910 L 313 911 L 306 916 L 301 918 L 296 922 L 293 923 L 291 925 L 288 926 L 286 928 L 283 929 L 281 931 L 271 936 L 269 938 L 261 942 L 256 946 L 253 947 L 251 949 L 248 950 L 246 952 L 238 956 L 238 957 L 241 958 L 243 960 L 251 964 L 256 968 L 259 969 L 261 971 L 264 972 L 266 974 L 269 975 L 271 977 L 274 978 L 276 980 L 279 981 L 281 983 L 284 984 L 286 986 L 289 987 L 291 989 L 294 990 L 296 992 L 299 993 L 301 995 L 304 996 L 306 998 L 309 999 L 316 1004 L 319 1004 L 323 1002 L 325 1000 L 328 999 L 330 997 L 333 996 L 335 994 L 338 993 L 340 991 L 343 990 L 345 988 L 351 985 L 353 983 L 356 982 L 358 980 L 361 979 L 363 977 L 366 976 L 368 974 L 374 971 L 376 969 L 379 968 L 384 964 L 387 963 L 389 961 L 397 957 L 402 953 L 405 952 L 407 950 L 415 946 L 420 942 L 423 941 L 425 939 L 433 935 L 438 931 L 441 930 L 446 926 L 449 925 L 451 923 L 459 919 L 464 915 L 472 911 L 477 907 L 480 906 L 482 904 L 488 901 L 493 897 L 496 896 L 506 889 L 509 888 L 511 886 L 519 882 L 524 878 L 532 874 L 537 870 L 540 869 L 542 867 L 558 859 L 560 859 L 563 857 L 568 856 L 571 854 L 574 854 L 578 852 L 581 852 L 582 851 L 585 851 L 586 850 L 589 850 L 590 849 L 594 849 L 595 848 L 601 848 L 602 847 L 611 847 L 612 846 L 636 846 L 637 847 L 645 847 L 646 848 L 651 848 L 652 849 L 656 849 L 657 850 L 661 850 L 662 851 L 665 851 L 669 853 L 672 853 L 673 854 L 678 855 L 681 857 L 683 857 L 690 861 L 692 861 L 698 864 L 700 866 L 710 871 L 718 877 L 721 878 L 726 882 L 729 883 L 734 887 L 737 888 L 742 892 L 745 893 L 755 900 L 758 901 L 763 905 L 766 906 L 771 910 L 774 911 L 784 918 L 787 919 L 792 923 L 800 927 L 808 933 L 811 934 L 821 941 L 824 942 L 834 949 L 837 950 L 842 954 L 850 958 L 852 960 L 858 963 L 863 967 L 866 968 L 871 972 L 874 973 L 876 975 L 884 979 L 889 983 L 892 984 L 897 988 L 900 989 L 902 991 L 905 992 L 907 994 L 913 997 L 913 995 L 914 994 L 914 985 L 915 984 L 915 972 L 916 971 L 916 962 L 917 961 L 917 951 L 918 950 L 918 939 L 919 938 L 919 930 L 920 929 L 920 919 L 921 918 Z M 639 302 L 638 303 L 638 389 L 637 390 L 637 410 L 638 411 L 637 412 L 638 414 L 638 582 L 639 583 L 639 591 L 640 592 L 640 597 L 641 598 L 642 608 L 643 609 L 643 612 L 644 613 L 644 616 L 645 617 L 646 624 L 647 625 L 647 627 L 648 628 L 648 630 L 649 631 L 649 633 L 650 634 L 652 642 L 654 645 L 654 647 L 656 650 L 656 652 L 662 663 L 662 665 L 664 669 L 666 671 L 669 678 L 671 680 L 673 685 L 675 687 L 675 688 L 677 690 L 677 691 L 679 693 L 679 694 L 681 696 L 685 703 L 688 706 L 688 707 L 691 710 L 691 711 L 695 715 L 695 716 L 701 722 L 701 723 L 719 741 L 720 741 L 727 748 L 728 748 L 732 752 L 733 752 L 737 756 L 741 758 L 744 761 L 745 761 L 753 767 L 756 768 L 758 770 L 761 771 L 763 773 L 768 775 L 778 782 L 783 784 L 785 786 L 788 787 L 795 792 L 800 794 L 802 796 L 805 797 L 807 799 L 810 800 L 812 802 L 815 803 L 817 805 L 820 806 L 822 808 L 825 809 L 827 811 L 830 812 L 832 814 L 835 815 L 837 817 L 840 818 L 842 820 L 845 821 L 847 823 L 855 827 L 857 829 L 860 830 L 862 832 L 865 833 L 867 835 L 870 836 L 872 838 L 875 839 L 877 841 L 880 842 L 882 844 L 885 845 L 887 847 L 890 848 L 892 850 L 895 851 L 897 853 L 900 854 L 902 856 L 905 857 L 907 859 L 910 860 L 912 862 L 915 863 L 917 865 L 920 866 L 922 868 L 925 869 L 927 871 L 930 872 L 932 874 L 935 875 L 937 877 L 940 878 L 942 880 L 945 881 L 947 883 L 950 884 L 952 886 L 955 887 L 957 889 L 960 890 L 962 892 L 967 894 L 977 901 L 982 903 L 992 910 L 997 912 L 999 914 L 1009 919 L 1009 903 L 1010 902 L 1010 852 L 1011 851 L 1011 832 L 1009 830 L 999 825 L 994 821 L 991 820 L 989 818 L 986 817 L 984 815 L 981 814 L 979 812 L 976 811 L 974 809 L 971 808 L 969 806 L 961 802 L 956 798 L 953 797 L 951 795 L 948 794 L 946 792 L 938 788 L 933 784 L 930 783 L 928 781 L 925 780 L 923 778 L 920 777 L 918 775 L 915 774 L 913 772 L 910 771 L 908 769 L 900 765 L 895 761 L 890 759 L 885 755 L 880 753 L 870 746 L 865 744 L 863 742 L 860 741 L 858 739 L 855 738 L 853 736 L 850 735 L 848 733 L 845 732 L 843 730 L 835 726 L 830 722 L 825 720 L 815 713 L 810 711 L 803 706 L 798 704 L 796 702 L 795 702 L 793 700 L 786 696 L 783 693 L 782 693 L 779 690 L 778 690 L 773 685 L 772 685 L 755 668 L 755 667 L 750 662 L 750 661 L 744 654 L 744 653 L 736 642 L 722 614 L 722 612 L 721 611 L 721 609 L 720 608 L 720 606 L 719 605 L 719 603 L 717 599 L 717 596 L 716 595 L 715 588 L 714 587 L 714 582 L 713 581 L 713 576 L 712 575 L 712 568 L 711 567 L 711 271 L 707 272 L 702 275 L 700 275 L 693 279 L 691 279 L 684 283 L 682 283 L 666 291 L 664 291 L 650 298 L 648 298 L 643 301 Z"/>
</svg>
